<svg xmlns="http://www.w3.org/2000/svg" viewBox="0 0 64 64" width="64" height="64">
  <rect width="64" height="64" fill="#000000"/>
  <g fill="#ffffff">
    <!-- Mountain range representing Himalaya -->
    <polygon points="8,45 16,28 24,45" opacity="0.9"/>
    <polygon points="20,45 28,25 36,45" opacity="0.8"/>
    <polygon points="32,45 40,30 48,45" opacity="0.7"/>
    <polygon points="44,45 52,32 60,45" opacity="0.6"/>
    
    <!-- Sun -->
    <circle cx="48" cy="18" r="6" opacity="0.9"/>
    <path d="M48,8 L48,12 M48,24 L48,28 M36,18 L40,18 M56,18 L60,18 M39,11 L42,14 M54,22 L57,25 M57,11 L54,14 M42,22 L39,25" stroke="#ffffff" stroke-width="1" opacity="0.7"/>
    
    <!-- Farm fields/agricultural land -->
    <rect x="6" y="48" width="52" height="2" opacity="0.6"/>
    <rect x="10" y="52" width="44" height="1" opacity="0.5"/>
    <rect x="14" y="55" width="36" height="1" opacity="0.4"/>
    <rect x="18" y="58" width="28" height="1" opacity="0.3"/>
    
    <!-- Company name elements -->
    <text x="32" y="62" font-family="Arial, sans-serif" font-size="8" font-weight="bold" text-anchor="middle" fill="#ffffff" opacity="0.9">HIMALAYA</text>
  </g>
</svg>